<svg width="121" height="40" viewBox="0 0 121 40" fill="none" xmlns="http://www.w3.org/2000/svg">
<g clip-path="url(#clip0)">
<path d="M46.3234 34.7654C41.8582 31.889 35.7984 31.3843 26.0256 34.0957C15.607 36.544 12.1333 38.1134 7.57137 34.9628C5.81877 33.4151 5.19042 30.9232 5.65962 27.3337C6.74787 21.4822 9.68877 15.851 14.9127 9.60471C17.8284 6.35541 20.5332 3.56691 24.1045 2.44716C26.8417 1.74471 26.5858 3.89586 26.2546 4.20351C25.9051 4.20351 25.318 4.25856 24.8643 4.55466C24.496 4.84026 23.4852 5.76246 23.4309 7.00296C23.3526 8.90196 25.3177 8.50671 26.1654 7.46406C27.079 6.28911 28.4293 4.03911 27.3672 1.94211C26.922 1.19571 26.1528 0.679861 25.1977 0.504211C21.9274 0.317311 18.8818 1.87626 16.0708 3.59976C9.92352 7.87011 5.00607 13.7873 2.22357 20.2643C0.619472 24.1723 -0.831328 29.7703 1.34322 34.3265C3.02562 37.4879 6.51807 39.1672 10.6849 38.816C13.6074 38.509 17.1412 37.5644 19.518 36.9941C21.8949 36.4228 34.0611 32.2408 38.0586 39.5195C38.0586 39.5195 39.3879 36.9391 42.7099 36.884C45.4411 36.632 49.3813 37.6747 52.2505 39.782C51.2946 38.3444 48.5844 36.2257 46.3234 34.7654Z" fill="#0A1045"/>
<path d="M27.2663 10.3401C24.9908 8.84719 20.4173 11.7014 16.7542 16.5972C13.4044 20.9888 11.9579 26.0928 13.5322 28.4531C15.8737 31.2303 20.2208 27.1907 22.0694 25.0284L22.3079 24.7757C23.5651 23.4254 24.5362 21.8006 25.4764 20.2415C25.4764 20.2415 26.3404 18.8144 26.3816 18.7484C26.9156 18.65 27.5588 18.4962 28.2836 18.2876C28.2733 18.3203 25.5106 22.964 25.7924 25.2689C25.8802 25.9721 25.8133 28.5408 28.3211 29.3201C31.6637 29.8803 34.3328 27.2892 36.6875 24.9839C36.6875 24.9839 37.0888 24.6 37.3157 24.3809C37.2583 24.6107 37.1834 24.9174 37.1834 24.9174C36.2048 28.3206 37.5239 29.0348 38.3491 29.2982C40.8428 30.0233 43.822 26.4003 43.8317 26.4003C43.7543 27.5415 43.5286 28.4855 44.7316 29.2431C45.8669 29.6496 47.0161 29.0298 47.8897 28.448C51.0359 26.2307 53.5706 22.76 55.6178 19.7601H54.3119C54.2965 19.7601 51.0896 24.4083 49.0072 25.4186C49.0039 25.4186 48.6248 25.6131 48.4066 25.4592C48.1361 25.2287 48.2428 24.7491 48.4097 24.4095C48.4202 24.3875 56.4503 10.4601 56.4503 10.4601H52.6589C52.6589 10.4601 52.2448 11.1302 52.211 11.1741C52.1855 11.1522 52.1248 11.037 52.0828 10.9818C49.7338 7.73253 44.4143 12.7305 40.4095 18.5265C38.8676 20.7552 36.9046 23.2646 34.8691 25.0758C34.8691 25.0758 31.8535 27.84 30.5651 25.854C30.0941 25.0196 30.239 23.7996 30.5047 22.9985C32.0048 18.728 34.5898 14.8524 37.5314 12.5141C38.3617 11.8668 39.2644 11.6796 39.7121 11.9541C40.139 12.207 40.2079 12.8322 39.9379 13.2605C39.2528 13.2386 38.7038 13.4468 38.2577 13.9079C37.3787 14.8301 37.0733 15.7194 37.3528 16.5539C38.7104 18.4859 41.4181 14.6655 41.2871 12.3383C41.2403 11.5038 40.7953 10.7136 40.1308 10.329C39.1406 9.73653 37.6301 9.88998 36.6526 10.3623C35.3438 10.8561 33.2725 12.5795 32.0633 13.919C30.5411 15.5988 27.9304 17.4648 27.1141 17.2559C27.3809 16.5422 29.5861 12.0305 27.2663 10.3401ZM45.5455 17.0145C46.283 15.9938 48.4297 13.2602 48.953 12.7992C50.7131 11.2508 51.4166 11.9321 51.4775 12.4148C49.8349 15.3567 47.8961 18.7271 46.0733 21.7571C46.0771 21.7463 45.5029 22.6242 45.5029 22.6242C44.6978 23.8533 43.8872 24.9074 42.565 25.6427C42.3764 25.698 42.0656 25.7201 41.8588 25.5657C41.6098 25.401 41.5115 25.1265 41.5396 24.8411C41.6189 23.8973 42.5798 21.0107 45.5455 17.0145ZM24.9197 18.7818C24.9197 18.7818 24.8866 18.881 24.8704 18.9134C24.8662 18.9134 23.2172 21.6026 23.2172 21.6026C22.2221 22.9311 20.9797 24.6002 19.4266 25.4012C18.9662 25.5548 18.3298 25.6539 18.0055 25.248C17.318 24.4245 17.6723 23.2827 17.9602 22.3608L18.0622 22.0314C18.8875 19.7922 20.1968 17.8158 21.4715 15.9825C21.4874 15.9717 21.5231 15.9608 21.536 15.9608C21.5392 15.9717 21.5443 15.9717 21.5464 15.9938C22.3462 17.5304 23.8459 18.2436 24.9674 18.5735C24.9742 18.5735 24.9815 18.5844 24.9815 18.6065C24.9817 18.6392 24.9634 18.6834 24.9197 18.7818ZM26.4818 15.6096C26.4745 15.6315 25.7474 17.3001 25.7474 17.3001C25.6423 17.3879 25.4761 17.3441 25.2856 17.3001L24.9592 17.2449C23.9342 16.9268 23.1611 16.2461 22.9228 15.4338C22.5941 13.853 23.9446 12.6125 24.5395 12.1626C25.1104 11.7671 25.9979 11.5586 26.5133 11.9649C26.8312 12.3383 26.9516 12.8211 26.9516 13.3484C26.9518 14.0616 26.7316 14.8629 26.4818 15.6096ZM74.4128 20.7029C74.0471 19.9127 73.1794 19.4076 72.2545 19.4624C69.251 19.737 66.3133 22.2069 64.7707 25.7525C63.9613 27.575 63.5195 29.0787 63.2299 31.4718C64.1639 30.3963 66.0689 28.629 68.2307 27.6629C68.2307 27.6629 68.5249 25.3686 70.0249 23.3267C70.5925 22.4811 71.7283 21.12 73.0037 21.4821C74.1182 21.8555 73.7264 24.9404 72.2453 27.9257C71.1494 30.1215 69.4724 32.3177 67.7756 33.8322C66.2755 35.1056 64.0559 36.6425 62.114 35.457C60.8909 34.7328 60.2671 33.2174 60.3988 31.2635C60.9832 25.7199 63.5068 20.9994 67.118 15.6204C70.8416 10.6256 74.9462 5.49903 80.4757 2.76513C81.6035 2.19438 82.648 2.06268 83.5508 2.41398C83.5508 2.41398 78.3602 5.26818 75.886 10.5486C75.2566 11.8881 74.3812 13.6989 75.2627 15.3018C75.7234 16.136 76.5412 16.202 77.1998 16.158C80.2327 15.4553 82.1921 12.6231 83.7931 10.0326C84.7213 8.06763 85.5463 6.11358 85.5463 3.93993C85.5463 3.67653 85.5326 3.32538 85.5104 3.06168C86.9593 2.29353 89.9306 3.65448 89.9306 3.65448C92.2525 4.42323 97.1963 8.21073 98.864 8.93493C99.6775 7.99098 101.014 6.56403 101.767 5.85033L100.677 5.18058C98.9329 4.11573 97.0889 3.10563 95.2741 2.10678C91.1522 -0.143367 87.797 0.646833 86.0896 1.26168C85.4185 1.50303 84.8053 1.71168 84.8053 1.71168C83.5381 0.328534 81.4597 0.459933 79.9283 0.833434C74.4212 2.41413 69.3082 6.26718 63.8264 12.9528C59.7962 18.1893 57.2963 22.7123 55.9639 27.18C54.9368 30.1878 54.6247 34.6118 57.1315 37.2356C59.2628 39.4635 62.089 38.9808 64.0846 38.1798C68.4086 36.0501 72.295 31.4612 74.2315 26.1807C74.6989 24.6111 75.2174 22.3937 74.4128 20.7029ZM84.3559 4.15968C83.7835 10.7244 78.6806 14.5779 77.4179 14.8848C76.6528 15.0383 75.3472 14.6982 76.5128 11.9432C78.2291 8.23233 81.1597 5.08203 84.3037 3.46818C84.3803 3.74268 84.3782 3.91788 84.3559 4.15968ZM114.626 4.99368C111.881 6.55278 109.035 7.56243 105.591 7.21128C104.636 8.28738 103.707 9.39603 102.85 10.5375C107.685 11.7671 112.81 9.03363 115.668 6.43218C118.692 3.80838 120.242 0.504333 120.242 0.504333C120.242 0.504333 117.976 3.09483 114.626 4.99368ZM62.7517 10.4604H59.1511L57.1201 13.7604H60.7199L62.7517 10.4604Z" fill="#0A1045"/>
<path d="M105.576 35.071C105.189 35.3344 104.645 35.1319 104.848 34.5283C105.355 32.9914 107.369 29.8594 107.369 29.8594L112.978 19.9105H109.136C108.953 20.2105 108.563 20.8993 108.563 20.8993C108.385 20.6032 107.854 19.9448 107.635 19.8025C106.696 19.2092 105.319 19.4897 104.369 20.0275C100.238 22.4429 97.224 27.2152 94.8469 30.9368C94.8469 30.9368 92.3448 35.0738 90.9559 35.3815C89.8716 35.4694 89.9835 34.0087 90.0304 33.6683C90.4497 31.2089 91.4233 28.8709 92.4042 26.7521C94.3995 25.369 96.6763 23.5577 98.7456 21.5708C103.236 17.2781 107.022 12.415 107.575 11.3282C107.575 11.3282 106.977 11.4491 106.269 11.4709C102.814 16.2901 95.7447 23.2942 93.6013 24.3368C94.5508 22.0529 100.686 11.1524 105.906 5.9381L106.727 5.14745C107.998 3.90695 109.314 2.6336 110.34 2.42495C110.448 2.414 110.587 2.42495 110.708 2.67785C110.754 3.6437 110.394 4.3574 109.981 5.16965L109.403 6.3554C109.403 6.3554 110.222 6.20165 110.76 6.02555C111.384 4.8515 112.075 3.53375 111.82 1.9643C111.735 1.45925 111.37 1.0751 110.892 0.987205C109.335 0.690805 107.638 1.8431 106.272 2.77655L106.217 2.80925C99.1965 8.30915 93.2686 16.2352 88.0858 27.0593C87.7102 27.3443 86.259 27.685 86.0124 27.5201C86.5242 26.4665 87.1686 25.0501 87.4909 23.5132C87.5467 23.0738 87.5986 22.6241 87.5986 22.1851C87.5986 21.2402 87.3718 20.3513 86.5255 19.7369C85.5331 19.2428 84.3066 19.4735 83.4795 19.8464C79.7749 21.3833 77.0061 25.1819 75.0079 28.3102C73.9333 30.2977 72.8619 32.4263 72.5652 34.8638C72.3562 36.7736 72.7816 38.0033 73.8676 38.6182C74.9842 39.1886 76.3897 38.5957 76.9419 38.3105C80.695 36.3344 83.3175 32.3717 85.3845 28.7489C85.4667 28.7381 86.5953 28.7054 87.4491 28.4855C87.4603 28.4855 87.4651 28.4855 87.484 28.4969C87.4351 28.661 86.994 29.9788 86.994 29.9788C85.6839 33.8206 85.078 36.4336 86.3155 37.9813C88.0839 40.1659 91.0116 37.9048 93.3931 34.9183C92.8819 38.4968 94.7365 39.0571 96.1504 38.7829C97.7745 38.344 99.5842 36.6091 100.424 35.7202C100.154 36.7628 100.228 38.6294 101.705 38.8157C102.718 39.0029 103.476 38.4521 104.352 37.9799C107.498 36.2672 111.263 30.5602 112.24 28.9102H110.959C109.569 31.0106 107.8 33.764 105.576 35.071ZM77.3434 34.6888C77.1439 34.3922 77.0778 34.0682 77.0712 33.7178C77.0329 31.5652 79.3489 27.7105 80.9835 25.6105H80.9869C81.6718 27.1105 83.2231 28.0747 84.1596 28.481C82.9966 31.072 79.0077 36.6208 77.3434 34.6888ZM84.8161 27.3227C84.7054 27.4001 82.7493 26.741 82.3711 24.9298C82.0504 23.3704 83.1243 22.1519 84.1632 21.5378C84.6091 21.1862 85.2808 21.0659 85.7736 21.2408C86.2309 21.5488 86.3548 22.0981 86.3548 22.6898C86.3548 23.0528 86.3067 23.4257 86.2642 23.7659L86.2549 23.843C85.9273 25.0601 85.4437 26.2297 84.8161 27.3227ZM100.506 33.9973C100.504 33.9973 100.134 34.3265 100.134 34.3265C99.6067 34.7984 99.0637 35.3033 98.4082 35.0507C98.2272 34.985 98.0998 34.7437 98.0692 34.5565C98.0394 33.2062 98.6473 31.955 99.2371 30.7366L99.3883 30.4181C101.085 27.586 103.056 24.2488 105.952 21.9328C106.44 21.5807 106.969 21.2849 107.528 21.5156C107.657 21.6362 107.806 21.8449 107.806 22.0532C107.806 22.1194 107.748 22.2949 107.714 22.3496C106.905 23.6566 106.135 25.0285 105.386 26.3458C103.922 28.9475 102.404 31.6366 100.506 33.9973Z" fill="#0A1045"/>
</g>
<defs>
<clipPath id="clip0">
<rect width="120" height="39.312" fill="white" transform="translate(0.242188 0.479492)"/>
</clipPath>
</defs>
</svg>
