<svg width="128" height="28" viewBox="0 0 128 28" fill="none" xmlns="http://www.w3.org/2000/svg">
<g clip-path="url(#clip0)">
<path d="M53.074 5.97745V22.2926H50.2415V9.48974H50.2037L45.143 22.2926H43.2547L38.0807 9.48974H38.0429V22.2926H35.437V5.97745H39.5158L44.1989 18.0628H44.2744L49.2218 5.97745H53.074ZM55.4155 7.22375C55.4155 6.77055 55.5666 6.39288 55.9065 6.09075C56.2464 5.78862 56.6241 5.63755 57.0773 5.63755C57.5682 5.63755 57.9837 5.78862 58.2858 6.09075C58.5879 6.39288 58.7768 6.77055 58.7768 7.22375C58.7768 7.67695 58.6257 8.05461 58.2858 8.35675C57.9459 8.65888 57.5682 8.80995 57.0773 8.80995C56.5863 8.80995 56.2086 8.65888 55.9065 8.35675C55.6044 8.01685 55.4155 7.63918 55.4155 7.22375ZM58.4746 10.585V22.2926H55.7177V10.585H58.4746ZM66.821 20.291C67.2365 20.291 67.6897 20.2155 68.1806 19.9889C68.6716 19.8 69.1248 19.5357 69.5402 19.2335V21.8016C69.087 22.066 68.5961 22.2548 68.0296 22.3681C67.4631 22.4814 66.8588 22.557 66.179 22.557C64.4417 22.557 63.0444 22.0282 61.9869 20.933C60.8917 19.8378 60.363 18.4404 60.363 16.7787C60.363 14.8904 60.9295 13.3419 62.0247 12.1334C63.1199 10.9249 64.6683 10.3206 66.7077 10.3206C67.2365 10.3206 67.7652 10.3961 68.2562 10.5094C68.7849 10.6227 69.2003 10.8116 69.5025 10.9626V13.6063C69.087 13.3042 68.6338 13.0398 68.2184 12.8887C67.7652 12.7377 67.312 12.6244 66.8588 12.6244C65.7636 12.6244 64.8949 12.9643 64.2151 13.6818C63.5353 14.3994 63.2332 15.3436 63.2332 16.5521C63.2332 17.7229 63.5731 18.667 64.2151 19.3091C64.8572 19.9511 65.7258 20.291 66.821 20.291ZM77.3579 10.3961C77.5845 10.3961 77.7733 10.3961 77.9622 10.4339C78.151 10.4717 78.3021 10.5094 78.4154 10.5472V13.3419C78.2643 13.2286 78.0755 13.1153 77.7733 13.0398C77.4712 12.9643 77.1691 12.8887 76.7537 12.8887C76.0739 12.8887 75.5074 13.1909 75.0542 13.7574C74.601 14.3239 74.3366 15.1925 74.3366 16.401V22.2926H71.5796V10.585H74.3366V12.4355H74.3744C74.6387 11.7935 75.0164 11.3025 75.5074 10.9249C76.0361 10.585 76.6404 10.3961 77.3579 10.3961ZM78.5664 16.6276C78.5664 14.7015 79.1329 13.1531 80.1904 12.0201C81.2856 10.8871 82.7963 10.3206 84.7224 10.3206C86.5352 10.3206 87.9703 10.8493 88.99 11.9446C90.0097 13.0398 90.5385 14.5127 90.5385 16.3633C90.5385 18.2516 89.972 19.7623 88.9145 20.8953C87.8193 22.0282 86.3464 22.5947 84.458 22.5947C82.6452 22.5947 81.2101 22.066 80.1526 21.0086C79.0952 19.9133 78.5664 18.4404 78.5664 16.6276ZM81.4367 16.5143C81.4367 17.7229 81.7011 18.667 82.2676 19.3091C82.8341 19.9511 83.6272 20.291 84.6469 20.291C85.6288 20.291 86.4219 19.9889 86.9506 19.3091C87.4794 18.667 87.7437 17.7229 87.7437 16.4388C87.7437 15.1925 87.4794 14.2483 86.9506 13.5685C86.4219 12.9265 85.6288 12.5866 84.6846 12.5866C83.6649 12.5866 82.9096 12.9265 82.3431 13.6063C81.7011 14.3239 81.4367 15.268 81.4367 16.5143ZM94.655 13.6818C94.655 14.0595 94.7683 14.3994 95.0327 14.626C95.297 14.8526 95.8258 15.117 96.6944 15.4569C97.7896 15.9101 98.5827 16.401 98.9982 16.9298C99.4514 17.4963 99.678 18.1383 99.678 18.9314C99.678 20.0266 99.2625 20.8953 98.3939 21.5751C97.563 22.2549 96.3923 22.557 94.9571 22.557C94.4662 22.557 93.9374 22.4814 93.3332 22.3681C92.7289 22.2548 92.2379 22.1038 91.8225 21.9149V19.1958C92.3135 19.5357 92.88 19.8378 93.4465 20.0266C94.013 20.2155 94.5417 20.3288 95.0327 20.3288C95.6369 20.3288 96.1279 20.2532 96.3923 20.0644C96.6944 19.8756 96.8455 19.6112 96.8455 19.1958C96.8455 18.8181 96.6944 18.516 96.3923 18.2138C96.0901 17.9495 95.4859 17.6473 94.655 17.3074C93.6353 16.892 92.9177 16.401 92.5023 15.8723C92.0869 15.3436 91.8603 14.6638 91.8603 13.8329C91.8603 12.7754 92.2757 11.9068 93.1066 11.227C93.9374 10.5472 95.0327 10.2073 96.3545 10.2073C96.7699 10.2073 97.2231 10.2451 97.7141 10.3584C98.2051 10.4717 98.6583 10.585 98.9982 10.6983V13.3797C98.6205 13.1531 98.2051 12.9265 97.7141 12.7377C97.2231 12.5488 96.7322 12.4733 96.279 12.4733C95.7502 12.4733 95.3348 12.5866 95.0704 12.7754C94.8061 13.0398 94.655 13.3042 94.655 13.6818ZM100.849 16.6276C100.849 14.7015 101.415 13.1531 102.473 12.0201C103.568 10.8871 105.079 10.3206 107.005 10.3206C108.817 10.3206 110.253 10.8493 111.272 11.9446C112.292 13.0398 112.821 14.5127 112.821 16.3633C112.821 18.2516 112.254 19.7623 111.197 20.8953C110.102 22.0282 108.629 22.5947 106.74 22.5947C104.928 22.5947 103.492 22.066 102.435 21.0086C101.415 19.9133 100.849 18.4404 100.849 16.6276ZM103.719 16.5143C103.719 17.7229 103.983 18.667 104.55 19.3091C105.116 19.9511 105.909 20.291 106.929 20.291C107.911 20.291 108.704 19.9889 109.233 19.3091C109.762 18.667 110.026 17.7229 110.026 16.4388C110.026 15.1925 109.762 14.2483 109.233 13.5685C108.704 12.9265 107.911 12.5866 106.967 12.5866C105.947 12.5866 105.192 12.9265 104.625 13.6063C104.021 14.3239 103.719 15.268 103.719 16.5143ZM121.998 12.851H117.881V22.2926H115.087V12.851H113.123V10.585H115.087V8.96101C115.087 7.75248 115.502 6.73278 116.295 5.93969C117.088 5.14659 118.108 4.76892 119.354 4.76892C119.694 4.76892 119.996 4.80669 120.261 4.80669C120.525 4.80669 120.752 4.88222 120.941 4.95775V7.33705C120.865 7.29928 120.676 7.22375 120.45 7.14822C120.223 7.07268 119.959 7.03492 119.656 7.03492C119.09 7.03492 118.637 7.22375 118.335 7.56365C118.033 7.90355 117.881 8.47005 117.881 9.14984V10.5472H121.998V7.90355L124.755 7.07268V10.5472H127.55V12.8132H124.755V18.2894C124.755 19.0069 124.906 19.4979 125.133 19.8C125.397 20.1022 125.812 20.2532 126.379 20.2532C126.53 20.2532 126.719 20.2155 126.945 20.1399C127.172 20.0644 127.361 19.9889 127.512 19.8756V22.1416C127.323 22.2549 127.059 22.3304 126.643 22.4059C126.228 22.4814 125.85 22.5192 125.435 22.5192C124.264 22.5192 123.395 22.2171 122.829 21.6128C122.262 21.0086 121.96 20.0644 121.96 18.8181L121.998 12.851Z" fill="#0A1045"/>
<path d="M12.966 0.539062H0.0498047V13.4552H12.966V0.539062Z" fill="#0A1045"/>
<path d="M27.2419 0.539062H14.3257V13.4552H27.2419V0.539062Z" fill="#0A1045"/>
<path d="M12.966 14.8148H0.0498047V27.731H12.966V14.8148Z" fill="#0A1045"/>
<path d="M27.2419 14.8148H14.3257V27.731H27.2419V14.8148Z" fill="#0A1045"/>
</g>
<defs>
<clipPath id="clip0">
<rect width="127.5" height="27.1919" fill="white" transform="translate(0.0498047 0.539062)"/>
</clipPath>
</defs>
</svg>
