<svg width="91" height="91" viewBox="0 0 91 91" fill="none" xmlns="http://www.w3.org/2000/svg">
<path d="M2.59863 45.8145C2.59863 36.603 21.7425 29.1348 45.3576 29.1348C68.9727 29.1348 88.1166 36.6048 88.1166 45.8154C88.1166 55.026 68.9736 62.4924 45.3576 62.4924C21.7416 62.4924 2.59863 55.0251 2.59863 45.8145Z" fill="#0A1045"/>
<path fill-rule="evenodd" clip-rule="evenodd" d="M18.269 53.9216L22.7069 37.3553H29.7116V47.0987H29.7575L34.5095 37.3553H41.6249L37.187 53.9216H32.5619L35.4068 43.2953H35.3609L29.7116 53.9216H26.0081V43.2953H25.9325L23.0876 53.9216H18.269Z" fill="white"/>
<path fill-rule="evenodd" clip-rule="evenodd" d="M42.877 54.2492L43.507 51.8948H48.6118L47.9809 54.2492H42.877Z" fill="white"/>
<path fill-rule="evenodd" clip-rule="evenodd" d="M43.6838 51.2334L46.2659 41.6015H41.6255L42.764 37.3553H57.1487L56.0111 41.6015H51.3707L48.7895 51.2307L43.6838 51.2334Z" fill="white"/>
<path fill-rule="evenodd" clip-rule="evenodd" d="M53.8501 53.9216L58.2853 37.3553H63.2983L65.56 46.2194H65.6041L67.9783 37.3553H72.6124L68.1763 53.9216H63.4072L60.9511 44.8739H60.907L58.4842 53.9216H53.8501Z" fill="white"/>
</svg>
