<svg width="136" height="46" viewBox="0 0 136 46" fill="none" xmlns="http://www.w3.org/2000/svg">
<g clip-path="url(#clip0)">
<path d="M135.616 11.3506C137.462 21.9317 108.657 35.7878 71.2717 42.2984C33.8916 48.809 2.09215 45.5061 0.24878 34.9193C-1.59459 24.3382 27.2185 10.485 64.5986 3.97715C101.981 -2.53906 133.775 0.766667 135.616 11.3506Z" fill="#0A1045"/>
<path d="M100.432 27.0554L100.241 16.0541H103.709V29.9214H98.7228L95.2601 18.5418H95.1845L95.3778 29.9214H91.9292V16.0541H97.1343L100.356 27.0554H100.432Z" fill="white"/>
<path d="M37.3708 17.354L35.4518 30.067H31.667L34.264 16.0541H40.4972L43.0858 30.067H39.315L37.4492 17.354H37.3708Z" fill="white"/>
<path d="M53.7118 26.7669L55.4431 16.0541H61.1581L61.4607 30.067H57.9588L57.8664 17.4688H57.7936L55.4515 30.067H51.8965L49.5516 17.4688H49.476L49.3891 30.067H45.8789L46.1899 16.0541H51.9077L53.6362 26.7669H53.7118Z" fill="white"/>
<path d="M25.7671 26.1142C25.9044 26.4531 25.8624 26.8902 25.7979 27.1535C25.6803 27.6185 25.3637 28.0948 24.4336 28.0948C23.5539 28.0948 23.0217 27.5905 23.0217 26.8229V25.467H19.2621L19.2593 26.5512C19.2593 29.6748 21.719 30.6189 24.3552 30.6189C26.8905 30.6189 28.9776 29.7533 29.3082 27.4168C29.4791 26.2066 29.3502 25.4138 29.2942 25.114C28.7031 22.1809 23.383 21.304 22.988 19.6652C22.9208 19.385 22.9404 19.0853 22.974 18.9256C23.0721 18.4802 23.3774 17.9871 24.2543 17.9871C25.0723 17.9871 25.557 18.4942 25.557 19.259C25.557 19.5167 25.557 20.1246 25.557 20.1246H29.0504V19.1413C29.0504 16.0877 26.3106 15.6115 24.3271 15.6115C21.8338 15.6115 19.7972 16.4351 19.4246 18.7155C19.3237 19.3458 19.3097 19.9061 19.4554 20.6093C20.0689 23.4696 25.0443 24.2988 25.7671 26.1142Z" fill="white"/>
<path d="M71.3328 26.0889C71.4701 26.4251 71.4253 26.8509 71.3637 27.1143C71.2488 27.5793 70.935 28.0472 70.0106 28.0472C69.1449 28.0472 68.6154 27.5429 68.6154 26.7921L68.6126 25.4474H64.8923L64.8867 26.5176C64.8867 29.6104 67.324 30.5433 69.9321 30.5433C72.4394 30.5433 74.5069 29.6888 74.8347 27.3748C75.0055 26.173 74.8851 25.3914 74.8235 25.0972C74.2351 22.1921 68.9712 21.3236 68.579 19.6988C68.5118 19.4186 68.5314 19.1245 68.565 18.9732C68.6659 18.5222 68.9656 18.0431 69.8341 18.0431C70.6465 18.0431 71.1199 18.5362 71.1199 19.2982C71.1199 19.5531 71.1199 20.1554 71.1199 20.1554H74.5881V19.1805C74.5881 16.1605 71.8707 15.6871 69.9041 15.6871C67.4388 15.6871 65.419 16.4995 65.0548 18.7659C64.954 19.3878 64.9427 19.9369 65.0884 20.6373C65.6907 23.4696 70.6185 24.2932 71.3328 26.0889Z" fill="white"/>
<path d="M83.102 27.9715C84.0741 27.9715 84.3766 27.2992 84.4439 26.9546C84.4719 26.8033 84.4803 26.6016 84.4775 26.4195V16.0485H88.0214V26.1001C88.0298 26.3579 88.0046 26.8873 87.9905 27.019C87.7412 29.6356 85.6737 30.4844 83.0991 30.4844C80.5218 30.4844 78.4515 29.6356 78.205 27.019C78.1937 26.8873 78.1685 26.3551 78.1741 26.1001V16.0485H81.7152V26.4167C81.7152 26.5988 81.7208 26.8033 81.7488 26.9518C81.8273 27.2964 82.1214 27.9715 83.102 27.9715Z" fill="white"/>
<path d="M112.335 27.8231C113.349 27.8231 113.705 27.1815 113.77 26.8089C113.795 26.6492 113.803 26.4531 113.8 26.2767V24.2428H112.363V22.1977H117.333V25.9601C117.33 26.2234 117.325 26.4167 117.283 26.8846C117.05 29.4339 114.837 30.3444 112.355 30.3444C109.867 30.3444 107.66 29.4339 107.422 26.8846C107.382 26.4167 107.377 26.2234 107.371 25.9601L107.374 20.0602C107.374 19.8109 107.405 19.371 107.433 19.1357C107.744 16.5163 109.867 15.6731 112.355 15.6731C114.84 15.6731 117.016 16.5107 117.274 19.1357C117.319 19.5811 117.305 20.0602 117.305 20.0602V20.528H113.772V19.7436C113.775 19.7464 113.767 19.4103 113.728 19.2113C113.669 18.9004 113.4 18.1888 112.33 18.1888C111.307 18.1888 111.01 18.8612 110.935 19.2113C110.892 19.3962 110.876 19.6456 110.876 19.8725V26.2823C110.873 26.4587 110.884 26.6549 110.912 26.8145C110.968 27.1815 111.321 27.8231 112.335 27.8231Z" fill="white"/>
</g>
<defs>
<clipPath id="clip0">
<rect width="135.535" height="45" fill="white" transform="translate(0.164551 0.634766)"/>
</clipPath>
</defs>
</svg>
