<svg width="222" height="183" viewBox="0 0 222 183" fill="none" xmlns="http://www.w3.org/2000/svg">
<g filter="url(#filter0_d)">
<rect x="61.5742" y="92.2687" width="130.186" height="40.1189" rx="4" fill="white"/>
</g>
<path d="M97.6111 117.328C100.713 117.328 102.508 115.404 102.508 112.222C102.508 109.055 100.713 107.146 97.7155 107.146H94.3149V117.328H97.6111ZM95.8511 115.986V108.489H97.621C99.8483 108.489 100.997 109.821 100.997 112.222C100.997 114.634 99.8483 115.986 97.5265 115.986H95.8511ZM104.299 117.328H105.786V109.692H104.299V117.328ZM105.05 108.513C105.562 108.513 105.989 108.116 105.989 107.629C105.989 107.141 105.562 106.739 105.05 106.739C104.533 106.739 104.11 107.141 104.11 107.629C104.11 108.116 104.533 108.513 105.05 108.513ZM110.987 120.351C112.931 120.351 114.432 119.461 114.432 117.497V109.692H112.976V110.93H112.866C112.603 110.457 112.076 109.592 110.654 109.592C108.81 109.592 107.452 111.049 107.452 113.48C107.452 115.916 108.839 117.214 110.644 117.214C112.046 117.214 112.588 116.423 112.856 115.936H112.951V117.438C112.951 118.636 112.131 119.153 111.002 119.153C109.764 119.153 109.282 118.531 109.018 118.094L107.741 118.621C108.143 119.555 109.163 120.351 110.987 120.351ZM110.972 115.981C109.645 115.981 108.954 114.962 108.954 113.46C108.954 111.994 109.63 110.855 110.972 110.855C112.27 110.855 112.966 111.914 112.966 113.46C112.966 115.036 112.255 115.981 110.972 115.981ZM116.426 117.328H117.913V109.692H116.426V117.328ZM117.177 108.513C117.689 108.513 118.116 108.116 118.116 107.629C118.116 107.141 117.689 106.739 117.177 106.739C116.66 106.739 116.237 107.141 116.237 107.629C116.237 108.116 116.66 108.513 117.177 108.513ZM123.477 109.692H121.911V107.862H120.424V109.692H119.306V110.885H120.424V115.394C120.419 116.781 121.478 117.452 122.652 117.428C123.124 117.423 123.442 117.333 123.616 117.268L123.348 116.04C123.248 116.06 123.064 116.105 122.826 116.105C122.343 116.105 121.911 115.946 121.911 115.086V110.885H123.477V109.692ZM127.344 117.497C128.606 117.497 129.317 116.856 129.601 116.284H129.66V117.328H131.112V112.257C131.112 110.035 129.362 109.592 128.149 109.592C126.767 109.592 125.494 110.149 124.997 111.541L126.394 111.859C126.613 111.317 127.17 110.795 128.169 110.795C129.128 110.795 129.621 111.298 129.621 112.163V112.197C129.621 112.739 129.064 112.729 127.692 112.888C126.245 113.058 124.763 113.435 124.763 115.17C124.763 116.672 125.892 117.497 127.344 117.497ZM127.667 116.304C126.827 116.304 126.22 115.926 126.22 115.19C126.22 114.395 126.926 114.112 127.786 113.997C128.268 113.933 129.412 113.803 129.626 113.589V114.574C129.626 115.479 128.905 116.304 127.667 116.304ZM134.579 107.146H133.092V117.328H134.579V107.146ZM141.939 107.146H140.403V117.328H141.939V107.146ZM147.472 117.328C150.575 117.328 152.369 115.404 152.369 112.222C152.369 109.055 150.575 107.146 147.577 107.146H144.176V117.328H147.472ZM145.712 115.986V108.489H147.482C149.71 108.489 150.858 109.821 150.858 112.222C150.858 114.634 149.71 115.986 147.388 115.986H145.712ZM159.883 111.556C159.574 110.368 158.645 109.592 156.994 109.592C155.269 109.592 154.046 110.502 154.046 111.854C154.046 112.938 154.702 113.659 156.134 113.977L157.427 114.261C158.163 114.425 158.506 114.753 158.506 115.23C158.506 115.822 157.874 116.284 156.9 116.284C156.01 116.284 155.438 115.901 155.259 115.151L153.822 115.369C154.071 116.722 155.195 117.482 156.91 117.482C158.754 117.482 160.032 116.503 160.032 115.121C160.032 114.042 159.346 113.376 157.944 113.053L156.731 112.774C155.891 112.575 155.528 112.292 155.533 111.775C155.528 111.188 156.164 110.771 157.009 110.771C157.934 110.771 158.361 111.283 158.535 111.795L159.883 111.556Z" fill="#C5C9DA"/>
<g filter="url(#filter1_d)">
<rect x="30.4814" y="10.134" width="130.186" height="40.1189" rx="4" fill="white"/>
</g>
<path d="M47.8146 35.1935L48.7493 32.4989H52.7266L53.6562 35.1935H55.2869L51.6229 25.0117H49.848L46.1839 35.1935H47.8146ZM49.1967 31.2063L50.6982 26.8611H50.7777L52.2791 31.2063H49.1967ZM59.7315 35.3476C61.5362 35.3476 62.7045 34.2638 62.8686 32.7773H61.4219C61.233 33.6026 60.5916 34.0898 59.7415 34.0898C58.4837 34.0898 57.6733 33.0408 57.6733 31.3753C57.6733 29.7396 58.4986 28.7105 59.7415 28.7105C60.6861 28.7105 61.2628 29.3071 61.4219 30.023H62.8686C62.7095 28.4818 61.4517 27.4577 59.7166 27.4577C57.5639 27.4577 56.1719 29.0784 56.1719 31.4101C56.1719 33.7119 57.5142 35.3476 59.7315 35.3476ZM67.6749 35.3476C69.4796 35.3476 70.6479 34.2638 70.812 32.7773H69.3652C69.1763 33.6026 68.535 34.0898 67.6848 34.0898C66.427 34.0898 65.6167 33.0408 65.6167 31.3753C65.6167 29.7396 66.4419 28.7105 67.6848 28.7105C68.6294 28.7105 69.2061 29.3071 69.3652 30.023H70.812C70.6529 28.4818 69.3951 27.4577 67.66 27.4577C65.5073 27.4577 64.1152 29.0784 64.1152 31.4101C64.1152 33.7119 65.4576 35.3476 67.6749 35.3476ZM75.6928 35.3476C77.3583 35.3476 78.5366 34.5273 78.8746 33.2844L77.4677 33.0308C77.1992 33.7517 76.5529 34.1196 75.7077 34.1196C74.435 34.1196 73.5799 33.2943 73.5401 31.8227H78.9691V31.2958C78.9691 28.5365 77.3185 27.4577 75.5884 27.4577C73.4606 27.4577 72.0586 29.0784 72.0586 31.425C72.0586 33.7965 73.4407 35.3476 75.6928 35.3476ZM73.5451 30.7091C73.6048 29.6253 74.3903 28.6857 75.5984 28.6857C76.7518 28.6857 77.5075 29.5408 77.5124 30.7091H73.5451ZM86.3407 29.4215C86.0325 28.2333 85.1028 27.4577 83.4522 27.4577C81.7271 27.4577 80.5041 28.3675 80.5041 29.7198C80.5041 30.8036 81.1603 31.5244 82.5922 31.8426L83.8848 32.126C84.6206 32.2901 84.9636 32.6182 84.9636 33.0955C84.9636 33.6871 84.3322 34.1494 83.3578 34.1494C82.4679 34.1494 81.8961 33.7666 81.7172 33.0159L80.2804 33.2347C80.5289 34.5869 81.6525 35.3476 83.3677 35.3476C85.2122 35.3476 86.4899 34.3682 86.4899 32.9861C86.4899 31.9073 85.8038 31.2411 84.4018 30.9179L83.1887 30.6395C82.3485 30.4406 81.9856 30.1573 81.9906 29.6402C81.9856 29.0536 82.622 28.636 83.4672 28.636C84.3919 28.636 84.8194 29.148 84.9934 29.6601L86.3407 29.4215ZM93.8466 29.4215C93.5384 28.2333 92.6087 27.4577 90.9581 27.4577C89.233 27.4577 88.0099 28.3675 88.0099 29.7198C88.0099 30.8036 88.6662 31.5244 90.098 31.8426L91.3906 32.126C92.1264 32.2901 92.4695 32.6182 92.4695 33.0955C92.4695 33.6871 91.8381 34.1494 90.8636 34.1494C89.9737 34.1494 89.402 33.7666 89.223 33.0159L87.7862 33.2347C88.0348 34.5869 89.1584 35.3476 90.8736 35.3476C92.718 35.3476 93.9957 34.3682 93.9957 32.9861C93.9957 31.9073 93.3097 31.2411 91.9077 30.9179L90.6946 30.6395C89.8544 30.4406 89.4915 30.1573 89.4964 29.6402C89.4915 29.0536 90.1278 28.636 90.973 28.636C91.8977 28.636 92.3253 29.148 92.4993 29.6601L93.8466 29.4215ZM102.552 35.3476C104.357 35.3476 105.525 34.2638 105.689 32.7773H104.242C104.053 33.6026 103.412 34.0898 102.562 34.0898C101.304 34.0898 100.494 33.0408 100.494 31.3753C100.494 29.7396 101.319 28.7105 102.562 28.7105C103.506 28.7105 104.083 29.3071 104.242 30.023H105.689C105.53 28.4818 104.272 27.4577 102.537 27.4577C100.384 27.4577 98.9922 29.0784 98.9922 31.4101C98.9922 33.7119 100.335 35.3476 102.552 35.3476ZM110.495 35.3476C112.648 35.3476 114.055 33.7716 114.055 31.4101C114.055 29.0337 112.648 27.4577 110.495 27.4577C108.343 27.4577 106.936 29.0337 106.936 31.4101C106.936 33.7716 108.343 35.3476 110.495 35.3476ZM110.5 34.0997C109.093 34.0997 108.437 32.8717 108.437 31.4051C108.437 29.9435 109.093 28.7006 110.5 28.7006C111.897 28.7006 112.553 29.9435 112.553 31.4051C112.553 32.8717 111.897 34.0997 110.5 34.0997ZM117.201 30.6594C117.201 29.4414 117.946 28.7453 118.98 28.7453C119.99 28.7453 120.601 29.4065 120.601 30.5152V35.1935H122.088V30.3362C122.088 28.447 121.049 27.4577 119.488 27.4577C118.339 27.4577 117.588 27.9896 117.235 28.8H117.141V27.5571H115.714V35.1935H117.201V30.6594ZM127.646 27.5571H126.08V25.7276H124.593V27.5571H123.475V28.7503H124.593V33.2595C124.588 34.6466 125.647 35.3178 126.821 35.2929C127.293 35.2879 127.611 35.1985 127.785 35.1338L127.517 33.9058C127.417 33.9257 127.233 33.9705 126.995 33.9705C126.512 33.9705 126.08 33.8114 126.08 32.9513V28.7503H127.646V27.5571ZM129.29 35.1935H130.777V30.5301C130.777 29.5308 131.547 28.81 132.601 28.81C132.91 28.81 133.258 28.8646 133.377 28.8994V27.4776C133.228 27.4577 132.934 27.4428 132.746 27.4428C131.851 27.4428 131.085 27.9499 130.807 28.7702H130.727V27.5571H129.29V35.1935ZM137.607 35.3476C139.759 35.3476 141.166 33.7716 141.166 31.4101C141.166 29.0337 139.759 27.4577 137.607 27.4577C135.454 27.4577 134.047 29.0337 134.047 31.4101C134.047 33.7716 135.454 35.3476 137.607 35.3476ZM137.612 34.0997C136.205 34.0997 135.548 32.8717 135.548 31.4051C135.548 29.9435 136.205 28.7006 137.612 28.7006C139.009 28.7006 139.665 29.9435 139.665 31.4051C139.665 32.8717 139.009 34.0997 137.612 34.0997ZM144.312 25.0117H142.825V35.1935H144.312V25.0117Z" fill="#C5C9DA"/>
<defs>
<filter id="filter0_d" x="31.5742" y="82.2687" width="190.186" height="100.119" filterUnits="userSpaceOnUse" color-interpolation-filters="sRGB">
<feFlood flood-opacity="0" result="BackgroundImageFix"/>
<feColorMatrix in="SourceAlpha" type="matrix" values="0 0 0 0 0 0 0 0 0 0 0 0 0 0 0 0 0 0 127 0" result="hardAlpha"/>
<feOffset dy="20"/>
<feGaussianBlur stdDeviation="15"/>
<feColorMatrix type="matrix" values="0 0 0 0 0.469688 0 0 0 0 0.625725 0 0 0 0 0.675 0 0 0 0.2 0"/>
<feBlend mode="normal" in2="BackgroundImageFix" result="effect1_dropShadow"/>
<feBlend mode="normal" in="SourceGraphic" in2="effect1_dropShadow" result="shape"/>
</filter>
<filter id="filter1_d" x="0.481445" y="0.134033" width="190.186" height="100.119" filterUnits="userSpaceOnUse" color-interpolation-filters="sRGB">
<feFlood flood-opacity="0" result="BackgroundImageFix"/>
<feColorMatrix in="SourceAlpha" type="matrix" values="0 0 0 0 0 0 0 0 0 0 0 0 0 0 0 0 0 0 127 0" result="hardAlpha"/>
<feOffset dy="20"/>
<feGaussianBlur stdDeviation="15"/>
<feColorMatrix type="matrix" values="0 0 0 0 0.469688 0 0 0 0 0.625725 0 0 0 0 0.675 0 0 0 0.2 0"/>
<feBlend mode="normal" in2="BackgroundImageFix" result="effect1_dropShadow"/>
<feBlend mode="normal" in="SourceGraphic" in2="effect1_dropShadow" result="shape"/>
</filter>
</defs>
</svg>
