<svg width="297" height="242" viewBox="0 0 297 242" fill="none" xmlns="http://www.w3.org/2000/svg">
<path d="M39.0664 168.874C39.0664 162.569 44.1771 157.458 50.4814 157.458H235.396C241.701 157.458 246.811 162.569 246.811 168.874V229.887C246.811 236.192 241.701 241.302 235.396 241.302H50.4815C44.1771 241.302 39.0664 236.192 39.0664 229.887V168.874Z" fill="white"/>
<path d="M89.3902 188.205H90.6231V184.227H92.8504C92.9399 184.227 93.0244 184.227 93.1089 184.222L95.2567 188.205H96.6885L94.3866 183.999C95.6842 183.556 96.2907 182.497 96.2907 181.145C96.2907 179.345 95.2169 178.023 92.8305 178.023H89.3902V188.205ZM90.6231 183.114V179.117H92.7907C94.4413 179.117 95.0777 179.922 95.0777 181.145C95.0777 182.368 94.4413 183.114 92.8106 183.114H90.6231ZM100.433 188.384C101.766 188.384 102.462 187.668 102.7 187.17H102.76V188.205H103.933V183.173C103.933 180.747 102.084 180.469 101.109 180.469C99.9561 180.469 98.6436 180.867 98.047 182.259L99.1606 182.656C99.4191 182.099 100.031 181.503 101.149 181.503C102.228 181.503 102.76 182.075 102.76 183.054V183.094C102.76 183.661 102.183 183.611 100.791 183.79C99.3744 183.974 97.8282 184.287 97.8282 186.037C97.8282 187.528 98.9816 188.384 100.433 188.384ZM100.612 187.33C99.6776 187.33 99.0015 186.912 99.0015 186.097C99.0015 185.202 99.8169 184.923 100.732 184.804C101.229 184.744 102.561 184.605 102.76 184.367V185.44C102.76 186.395 102.004 187.33 100.612 187.33ZM109.396 180.568H107.765V178.739H106.592V180.568H105.438V181.563H106.592V186.335C106.592 187.668 107.666 188.304 108.66 188.304C109.098 188.304 109.376 188.224 109.535 188.165L109.296 187.111C109.197 187.131 109.038 187.17 108.779 187.17C108.262 187.17 107.765 187.011 107.765 186.017V181.563H109.396V180.568ZM114.28 188.364C115.832 188.364 116.965 187.588 117.323 186.435L116.19 186.117C115.891 186.912 115.2 187.31 114.28 187.31C112.903 187.31 111.954 186.42 111.899 184.784H117.442V184.287C117.442 181.443 115.752 180.469 114.161 180.469C112.093 180.469 110.721 182.099 110.721 184.446C110.721 186.793 112.073 188.364 114.28 188.364ZM111.899 183.77C111.979 182.582 112.819 181.523 114.161 181.523C115.434 181.523 116.249 182.477 116.249 183.77H111.899ZM126.267 188.364C128.335 188.364 129.727 186.793 129.727 184.426C129.727 182.04 128.335 180.469 126.267 180.469C124.199 180.469 122.807 182.04 122.807 184.426C122.807 186.793 124.199 188.364 126.267 188.364ZM126.267 187.31C124.696 187.31 123.98 185.957 123.98 184.426C123.98 182.895 124.696 181.523 126.267 181.523C127.838 181.523 128.554 182.895 128.554 184.426C128.554 185.957 127.838 187.31 126.267 187.31ZM136.331 185.082C136.331 186.514 135.237 187.17 134.362 187.17C133.388 187.17 132.691 186.455 132.691 185.341V180.568H131.518V185.42C131.518 187.369 132.552 188.304 133.984 188.304C135.138 188.304 135.893 187.688 136.251 186.912H136.331V188.205H137.504V180.568H136.331V185.082ZM139.653 188.205H140.826V183.372C140.826 182.338 141.642 181.582 142.755 181.582C143.068 181.582 143.392 181.642 143.471 181.662V180.469C143.337 180.459 143.029 180.449 142.855 180.449C141.94 180.449 141.144 180.966 140.866 181.722H140.786V180.568H139.653V188.205ZM154.209 182.278C153.841 181.195 153.015 180.469 151.504 180.469C149.893 180.469 148.7 181.384 148.7 182.676C148.7 183.73 149.326 184.436 150.728 184.764L152.001 185.063C152.772 185.242 153.135 185.609 153.135 186.136C153.135 186.793 152.439 187.33 151.345 187.33C150.385 187.33 149.784 186.917 149.575 186.097L148.461 186.375C148.735 187.673 149.804 188.364 151.365 188.364C153.14 188.364 154.348 187.394 154.348 186.077C154.348 185.013 153.682 184.342 152.319 184.009L151.186 183.73C150.281 183.506 149.873 183.203 149.873 182.617C149.873 181.96 150.569 181.483 151.504 181.483C152.528 181.483 152.951 182.05 153.155 182.577L154.209 182.278ZM159.316 188.364C160.867 188.364 162 187.588 162.358 186.435L161.225 186.117C160.926 186.912 160.235 187.31 159.316 187.31C157.938 187.31 156.989 186.42 156.934 184.784H162.478V184.287C162.478 181.443 160.787 180.469 159.196 180.469C157.128 180.469 155.756 182.099 155.756 184.446C155.756 186.793 157.108 188.364 159.316 188.364ZM156.934 183.77C157.014 182.582 157.854 181.523 159.196 181.523C160.469 181.523 161.284 182.477 161.284 183.77H156.934ZM164.262 188.205H165.436V183.372C165.436 182.338 166.251 181.582 167.365 181.582C167.678 181.582 168.001 181.642 168.081 181.662V180.469C167.946 180.459 167.638 180.449 167.464 180.449C166.549 180.449 165.754 180.966 165.475 181.722H165.396V180.568H164.262V188.205ZM175.948 180.568H174.675L172.567 186.653H172.488L170.38 180.568H169.107L171.931 188.205H173.124L175.948 180.568ZM177.497 188.205H178.67V180.568H177.497V188.205ZM178.093 179.295C178.551 179.295 178.929 178.938 178.929 178.5C178.929 178.063 178.551 177.705 178.093 177.705C177.636 177.705 177.258 178.063 177.258 178.5C177.258 178.938 177.636 179.295 178.093 179.295ZM183.921 188.364C185.612 188.364 186.725 187.33 186.924 185.977H185.751C185.532 186.813 184.836 187.31 183.921 187.31C182.529 187.31 181.634 186.156 181.634 184.386C181.634 182.656 182.549 181.523 183.921 181.523C184.955 181.523 185.572 182.159 185.751 182.855H186.924C186.725 181.423 185.512 180.469 183.901 180.469C181.833 180.469 180.461 182.099 180.461 184.426C180.461 186.713 181.774 188.364 183.921 188.364ZM191.841 188.364C193.392 188.364 194.526 187.588 194.884 186.435L193.75 186.117C193.452 186.912 192.761 187.31 191.841 187.31C190.464 187.31 189.514 186.42 189.46 184.784H195.003V184.287C195.003 181.443 193.313 180.469 191.722 180.469C189.653 180.469 188.281 182.099 188.281 184.446C188.281 186.793 189.634 188.364 191.841 188.364ZM189.46 183.77C189.539 182.582 190.379 181.523 191.722 181.523C192.994 181.523 193.81 182.477 193.81 183.77H189.46Z" fill="#C5C9DA"/>
<path d="M96.635 205.328C96.6586 205.235 96.7118 205.153 96.7862 205.094C96.8606 205.035 96.9521 205.004 97.0463 205.004C97.1404 205.004 97.2319 205.035 97.3063 205.094C97.3807 205.153 97.4339 205.235 97.4575 205.328L98.7386 210.484H104.11C104.201 210.484 104.289 210.514 104.362 210.57C104.434 210.625 104.488 210.703 104.514 210.791C104.54 210.88 104.538 210.974 104.507 211.061C104.476 211.149 104.419 211.223 104.344 211.274L100.428 213.821L102.479 219.398C102.511 219.485 102.514 219.58 102.49 219.669C102.465 219.758 102.412 219.837 102.34 219.893C102.268 219.949 102.18 219.98 102.089 219.982C101.998 219.983 101.909 219.955 101.836 219.901L97.0429 216.41L92.2484 219.901C92.1747 219.955 92.0859 219.983 91.995 219.982C91.9042 219.98 91.8162 219.949 91.7441 219.893C91.672 219.837 91.6195 219.758 91.5945 219.669C91.5696 219.58 91.5733 219.485 91.6054 219.398L93.6582 213.821L89.7421 211.281C89.6666 211.23 89.6093 211.155 89.5786 211.068C89.548 210.981 89.5455 210.887 89.5717 210.798C89.5979 210.709 89.6513 210.632 89.724 210.577C89.7967 210.521 89.8849 210.491 89.9756 210.491H95.3505L96.635 205.328Z" fill="#CCDBFF"/>
<path d="M119.613 205.328C119.637 205.235 119.69 205.153 119.764 205.094C119.839 205.035 119.93 205.004 120.024 205.004C120.118 205.004 120.21 205.035 120.284 205.094C120.359 205.153 120.412 205.235 120.436 205.328L121.717 210.484H127.088C127.179 210.484 127.267 210.514 127.34 210.57C127.413 210.625 127.466 210.703 127.492 210.791C127.518 210.88 127.516 210.974 127.485 211.061C127.454 211.149 127.397 211.223 127.322 211.274L123.406 213.821L125.457 219.398C125.489 219.485 125.493 219.58 125.468 219.669C125.443 219.758 125.39 219.837 125.318 219.893C125.246 219.949 125.158 219.98 125.067 219.982C124.976 219.983 124.887 219.955 124.814 219.901L120.021 216.41L115.226 219.901C115.153 219.955 115.064 219.983 114.973 219.982C114.882 219.98 114.794 219.949 114.722 219.893C114.65 219.837 114.598 219.758 114.573 219.669C114.548 219.58 114.551 219.485 114.583 219.398L116.636 213.821L112.72 211.281C112.645 211.23 112.587 211.155 112.557 211.068C112.526 210.981 112.524 210.887 112.55 210.798C112.576 210.709 112.629 210.632 112.702 210.577C112.775 210.521 112.863 210.491 112.954 210.491H118.329L119.613 205.328Z" fill="#CCDBFF"/>
<path d="M142.591 205.328C142.615 205.235 142.668 205.153 142.742 205.094C142.817 205.035 142.908 205.004 143.002 205.004C143.096 205.004 143.188 205.035 143.262 205.094C143.337 205.153 143.39 205.235 143.414 205.328L144.695 210.484H150.066C150.157 210.484 150.245 210.514 150.318 210.57C150.391 210.625 150.444 210.703 150.47 210.791C150.496 210.88 150.494 210.974 150.463 211.061C150.432 211.149 150.375 211.223 150.3 211.274L146.384 213.821L148.435 219.398C148.467 219.485 148.471 219.58 148.446 219.669C148.421 219.758 148.368 219.837 148.296 219.893C148.224 219.949 148.136 219.98 148.045 219.982C147.954 219.983 147.865 219.955 147.792 219.901L142.999 216.41L138.205 219.901C138.131 219.955 138.042 219.983 137.951 219.982C137.86 219.98 137.772 219.949 137.7 219.893C137.628 219.837 137.576 219.758 137.551 219.669C137.526 219.58 137.529 219.485 137.561 219.398L139.614 213.821L135.698 211.281C135.623 211.23 135.565 211.155 135.535 211.068C135.504 210.981 135.502 210.887 135.528 210.798C135.554 210.709 135.607 210.632 135.68 210.577C135.753 210.521 135.841 210.491 135.932 210.491H141.307L142.591 205.328Z" fill="#CCDBFF"/>
<path d="M165.57 205.328C165.593 205.235 165.646 205.153 165.721 205.094C165.795 205.035 165.887 205.004 165.981 205.004C166.075 205.004 166.166 205.035 166.241 205.094C166.315 205.153 166.368 205.235 166.392 205.328L167.673 210.484H173.045C173.135 210.484 173.224 210.514 173.296 210.57C173.369 210.625 173.422 210.703 173.449 210.791C173.475 210.88 173.472 210.974 173.442 211.061C173.411 211.149 173.354 211.223 173.278 211.274L169.362 213.821L171.413 219.398C171.445 219.485 171.449 219.58 171.424 219.669C171.399 219.758 171.347 219.837 171.275 219.893C171.202 219.949 171.114 219.98 171.024 219.982C170.933 219.983 170.844 219.955 170.77 219.901L165.977 216.41L161.183 219.901C161.109 219.955 161.02 219.983 160.93 219.982C160.839 219.98 160.751 219.949 160.679 219.893C160.607 219.837 160.554 219.758 160.529 219.669C160.504 219.58 160.508 219.485 160.54 219.398L162.593 213.821L158.677 211.281C158.601 211.23 158.544 211.155 158.513 211.068C158.483 210.981 158.48 210.887 158.506 210.798C158.532 210.709 158.586 210.632 158.659 210.577C158.731 210.521 158.819 210.491 158.91 210.491H164.285L165.57 205.328Z" fill="#CCDBFF"/>
<path d="M188.548 205.328C188.572 205.235 188.625 205.153 188.699 205.094C188.774 205.035 188.865 205.004 188.959 205.004C189.053 205.004 189.145 205.035 189.219 205.094C189.294 205.153 189.347 205.235 189.371 205.328L190.652 210.484H196.023C196.114 210.484 196.202 210.514 196.275 210.57C196.348 210.625 196.401 210.703 196.427 210.791C196.453 210.88 196.451 210.974 196.42 211.061C196.39 211.149 196.332 211.223 196.257 211.274L192.341 213.821L194.392 219.398C194.424 219.485 194.428 219.58 194.403 219.669C194.378 219.758 194.325 219.837 194.253 219.893C194.181 219.949 194.093 219.98 194.002 219.982C193.911 219.983 193.822 219.955 193.749 219.901L188.956 216.41L184.162 219.901C184.088 219.955 183.999 219.983 183.908 219.982C183.817 219.98 183.729 219.949 183.657 219.893C183.585 219.837 183.533 219.758 183.508 219.669C183.483 219.58 183.486 219.485 183.518 219.398L185.571 213.821L181.655 211.281C181.58 211.23 181.522 211.155 181.492 211.068C181.461 210.981 181.459 210.887 181.485 210.798C181.511 210.709 181.564 210.632 181.637 210.577C181.71 210.521 181.798 210.491 181.889 210.491H187.264L188.548 205.328Z" fill="#E8EDFF"/>
<path opacity="0.15" d="M54.8828 184.211C54.8828 177.907 59.9935 172.796 66.2978 172.796C72.6022 172.796 77.7129 177.907 77.7129 184.211C77.7129 190.516 72.6022 195.626 66.2978 195.626C59.9935 195.626 54.8828 190.516 54.8828 184.211Z" fill="#FFA200"/>
<path d="M66.0461 179.2C66.0626 179.134 66.1 179.077 66.1523 179.035C66.2046 178.994 66.2689 178.972 66.335 178.972C66.4012 178.972 66.4655 178.994 66.5178 179.035C66.5701 179.077 66.6075 179.134 66.624 179.2L67.5243 182.823H71.299C71.3627 182.823 71.4247 182.844 71.4758 182.883C71.527 182.922 71.5645 182.976 71.5829 183.039C71.6012 183.101 71.5995 183.167 71.578 183.229C71.5564 183.29 71.5162 183.342 71.4631 183.378L68.7112 185.168L70.1526 189.087C70.1751 189.148 70.1777 189.215 70.1602 189.277C70.1426 189.34 70.1058 189.395 70.0551 189.435C70.0044 189.474 69.9426 189.496 69.8787 189.497C69.8149 189.498 69.7525 189.478 69.7006 189.44L66.3327 186.987L62.9635 189.44C62.9117 189.478 62.8492 189.498 62.7854 189.497C62.7216 189.496 62.6597 189.474 62.6091 189.435C62.5584 189.395 62.5215 189.34 62.504 189.277C62.4864 189.215 62.4891 189.148 62.5116 189.087L63.9541 185.168L61.2022 183.383C61.1492 183.347 61.1089 183.295 61.0873 183.233C61.0658 183.172 61.0641 183.106 61.0825 183.043C61.1009 182.981 61.1384 182.927 61.1895 182.888C61.2406 182.849 61.3026 182.828 61.3663 182.828H65.1434L66.0461 179.2Z" stroke="#D8A248" stroke-linecap="round" stroke-linejoin="round"/>
<rect x="39.3076" y="121.712" width="207.74" height="28.1953" rx="4" fill="white"/>
<g filter="url(#filter0_d)">
<path d="M39.0664 41.7317C39.0664 35.4273 44.1771 30.3167 50.4814 30.3167H235.396C241.701 30.3167 246.811 35.4273 246.811 41.7317V102.746C246.811 109.05 241.701 114.161 235.396 114.161H50.4815C44.1771 114.161 39.0664 109.05 39.0664 102.746V41.7317Z" fill="white"/>
</g>
<rect x="87.5181" y="81.67" width="95.7565" height="8" rx="2" fill="#F3F6FF"/>
<path d="M89.3902 65.5516H90.6231V60.9977H96.0521V65.5516H97.2851V55.3698H96.0521V59.9039H90.6231V55.3698H89.3902V65.5516ZM102.697 65.7107C104.765 65.7107 106.157 64.1397 106.157 61.7732C106.157 59.3869 104.765 57.8158 102.697 57.8158C100.628 57.8158 99.2364 59.3869 99.2364 61.7732C99.2364 64.1397 100.628 65.7107 102.697 65.7107ZM102.697 64.6567C101.126 64.6567 100.41 63.3045 100.41 61.7732C100.41 60.242 101.126 58.8698 102.697 58.8698C104.268 58.8698 104.984 60.242 104.984 61.7732C104.984 63.3045 104.268 64.6567 102.697 64.6567ZM109.418 65.5516H110.572L112.242 59.6852H112.361L114.032 65.5516H115.185L117.512 57.9153H116.279L114.628 63.742H114.549L112.938 57.9153H111.685L110.055 63.7619H109.975L108.324 57.9153H107.092L109.418 65.5516ZM126.103 65.7107C127.793 65.7107 128.907 64.6766 129.106 63.3244H127.932C127.714 64.1596 127.018 64.6567 126.103 64.6567C124.711 64.6567 123.816 63.5033 123.816 61.7335C123.816 60.0033 124.731 58.8698 126.103 58.8698C127.137 58.8698 127.753 59.5062 127.932 60.2022H129.106C128.907 58.7704 127.694 57.8158 126.083 57.8158C124.015 57.8158 122.643 59.4465 122.643 61.7732C122.643 64.0602 123.955 65.7107 126.103 65.7107ZM133.068 65.7306C134.4 65.7306 135.097 65.0147 135.335 64.5175H135.395V65.5516H136.568V60.5204C136.568 58.0942 134.719 57.8158 133.744 57.8158C132.591 57.8158 131.278 58.2136 130.682 59.6056L131.795 60.0033C132.054 59.4465 132.665 58.8499 133.784 58.8499C134.863 58.8499 135.395 59.4217 135.395 60.4011V60.4408C135.395 61.0076 134.818 60.9579 133.426 61.1369C132.009 61.3208 130.463 61.634 130.463 63.384C130.463 64.8755 131.616 65.7306 133.068 65.7306ZM133.247 64.6766C132.312 64.6766 131.636 64.259 131.636 63.4437C131.636 62.5488 132.452 62.2704 133.366 62.1511C133.864 62.0914 135.196 61.9522 135.395 61.7136V62.7874C135.395 63.742 134.639 64.6766 133.247 64.6766ZM139.883 60.9579C139.883 59.6255 140.708 58.8698 141.832 58.8698C142.921 58.8698 143.582 59.5808 143.582 60.7789V65.5516H144.755V60.6994C144.755 58.7505 143.716 57.8158 142.17 57.8158C141.016 57.8158 140.301 58.3329 139.943 59.1085H139.843V57.9153H138.71V65.5516H139.883V60.9579ZM152.567 65.5516H153.72L155.391 59.6852H155.51L157.18 65.5516H158.334L160.66 57.9153H159.427L157.777 63.742H157.697L156.087 57.9153H154.834L153.203 63.7619H153.123L151.473 57.9153H150.24L152.567 65.5516ZM165.153 65.7107C166.705 65.7107 167.838 64.9352 168.196 63.7817L167.063 63.4636C166.764 64.259 166.073 64.6567 165.153 64.6567C163.776 64.6567 162.827 63.7668 162.772 62.1312H168.315V61.634C168.315 58.7903 166.625 57.8158 165.034 57.8158C162.966 57.8158 161.594 59.4465 161.594 61.7931C161.594 64.1397 162.946 65.7107 165.153 65.7107ZM162.772 61.117C162.852 59.9288 163.692 58.8698 165.034 58.8698C166.307 58.8698 167.122 59.8244 167.122 61.117H162.772ZM175.211 60.9579C175.211 59.6255 176.061 58.8698 177.22 58.8698C178.323 58.8698 178.989 59.5658 178.989 60.7789V65.5516H180.163V60.6994C180.163 58.7356 179.119 57.8158 177.558 57.8158C176.354 57.8158 175.668 58.318 175.31 59.1085H175.211V55.3698H174.038V65.5516H175.211V60.9579ZM185.511 65.7107C187.062 65.7107 188.196 64.9352 188.554 63.7817L187.42 63.4636C187.122 64.259 186.431 64.6567 185.511 64.6567C184.134 64.6567 183.184 63.7668 183.13 62.1312H188.673V61.634C188.673 58.7903 186.983 57.8158 185.392 57.8158C183.323 57.8158 181.951 59.4465 181.951 61.7931C181.951 64.1397 183.304 65.7107 185.511 65.7107ZM183.13 61.117C183.209 59.9288 184.049 58.8698 185.392 58.8698C186.664 58.8698 187.48 59.8244 187.48 61.117H183.13ZM191.631 55.3698H190.458V65.5516H191.631V55.3698ZM193.78 68.4153H194.953V64.3783H195.053C195.311 64.796 195.808 65.7107 197.28 65.7107C199.189 65.7107 200.521 64.1795 200.521 61.7533C200.521 59.3471 199.189 57.8158 197.26 57.8158C195.769 57.8158 195.311 58.7306 195.053 59.1283H194.913V57.9153H193.78V68.4153ZM194.933 61.7335C194.933 60.0232 195.689 58.8698 197.121 58.8698C198.612 58.8698 199.348 60.1227 199.348 61.7335C199.348 63.3641 198.592 64.6567 197.121 64.6567C195.709 64.6567 194.933 63.4636 194.933 61.7335ZM203.842 62.688H205.036V62.6283C205.055 61.3954 205.374 60.8585 206.249 60.3116C207.124 59.7796 207.641 59.014 207.641 57.9153C207.641 56.3641 206.507 55.2306 204.757 55.2306C203.146 55.2306 201.869 56.2249 201.794 57.9153H203.047C203.122 56.742 203.942 56.2647 204.757 56.2647C205.692 56.2647 206.448 56.8812 206.448 57.8556C206.448 58.6461 205.995 59.2129 205.413 59.5658C204.439 60.1575 203.857 60.7342 203.842 62.6283V62.688ZM204.479 65.6312C204.971 65.6312 205.374 65.2285 205.374 64.7363C205.374 64.2441 204.971 63.8414 204.479 63.8414C203.987 63.8414 203.584 64.2441 203.584 64.7363C203.584 65.2285 203.987 65.6312 204.479 65.6312Z" fill="#C5C9DA"/>
<path opacity="0.15" d="M54.3101 61.5587C54.3101 54.9382 59.677 49.5712 66.2976 49.5712C72.9181 49.5712 78.285 54.9382 78.285 61.5587C78.285 68.1792 72.9181 73.5462 66.2976 73.5462C59.677 73.5462 54.3101 68.1792 54.3101 61.5587Z" fill="#00A2E3"/>
<path fill-rule="evenodd" clip-rule="evenodd" d="M64.5157 56.6863C64.6165 56.6143 64.7373 56.5756 64.8613 56.5756C64.9852 56.5756 65.106 56.6143 65.2069 56.6863C65.3077 56.7584 65.3835 56.8601 65.4237 56.9774L68.5278 66.0684C68.5914 66.2548 68.4919 66.4576 68.3054 66.5212C68.119 66.5849 67.9162 66.4854 67.8526 66.2989L64.8614 57.5386L61.8791 66.2986C61.8156 66.4851 61.6129 66.5848 61.4264 66.5213C61.2399 66.4578 61.1402 66.2552 61.2037 66.0687L64.2986 56.978C64.3388 56.8608 64.4148 56.7584 64.5157 56.6863Z" fill="#2AABDF"/>
<path fill-rule="evenodd" clip-rule="evenodd" d="M62.3179 62.8544C62.3179 62.6574 62.4776 62.4977 62.6746 62.4977H67.0537C67.2507 62.4977 67.4104 62.6574 67.4104 62.8544C67.4104 63.0514 67.2507 63.2111 67.0537 63.2111H62.6746C62.4776 63.2111 62.3179 63.0514 62.3179 62.8544Z" fill="#2AABDF"/>
<path fill-rule="evenodd" clip-rule="evenodd" d="M60.4712 66.184C60.4712 65.987 60.6309 65.8273 60.8279 65.8273H62.2643C62.4613 65.8273 62.621 65.987 62.621 66.184C62.621 66.381 62.4613 66.5407 62.2643 66.5407H60.8279C60.6309 66.5407 60.4712 66.381 60.4712 66.184Z" fill="#2AABDF"/>
<path fill-rule="evenodd" clip-rule="evenodd" d="M67.1201 66.184C67.1201 65.987 67.2798 65.8273 67.4768 65.8273H68.9137C69.1107 65.8273 69.2704 65.987 69.2704 66.184C69.2704 66.381 69.1107 66.5407 68.9137 66.5407H67.4768C67.2798 66.5407 67.1201 66.381 67.1201 66.184Z" fill="#2AABDF"/>
<path fill-rule="evenodd" clip-rule="evenodd" d="M68.7601 60.0328C68.861 59.9607 68.9818 59.922 69.1057 59.922C69.2297 59.922 69.3505 59.9607 69.4514 60.0328C69.5522 60.1048 69.628 60.2066 69.6682 60.3238L71.6293 66.0688C71.693 66.2553 71.5934 66.458 71.407 66.5216C71.2205 66.5853 71.0178 66.4857 70.9541 66.2993L69.1059 60.885L68.3205 63.1908C68.2569 63.3773 68.0543 63.477 67.8678 63.4135C67.6813 63.35 67.5816 63.1473 67.6451 62.9608L68.5431 60.3244C68.5833 60.2072 68.6593 60.1048 68.7601 60.0328Z" fill="#2AABDF"/>
<path fill-rule="evenodd" clip-rule="evenodd" d="M68.2812 63.8062C68.2812 63.6092 68.441 63.4495 68.638 63.4495H70.4805C70.6776 63.4495 70.8373 63.6092 70.8373 63.8062C70.8373 64.0032 70.6776 64.1629 70.4805 64.1629H68.638C68.441 64.1629 68.2812 64.0032 68.2812 63.8062Z" fill="#2AABDF"/>
<path fill-rule="evenodd" clip-rule="evenodd" d="M70.4668 66.184C70.4668 65.987 70.6265 65.8273 70.8235 65.8273H71.7672C71.9642 65.8273 72.1239 65.987 72.1239 66.184C72.1239 66.381 71.9642 66.5407 71.7672 66.5407H70.8235C70.6265 66.5407 70.4668 66.381 70.4668 66.184Z" fill="#2AABDF"/>
<defs>
<filter id="filter0_d" x="-10.9336" y="0.31665" width="307.745" height="183.844" filterUnits="userSpaceOnUse" color-interpolation-filters="sRGB">
<feFlood flood-opacity="0" result="BackgroundImageFix"/>
<feColorMatrix in="SourceAlpha" type="matrix" values="0 0 0 0 0 0 0 0 0 0 0 0 0 0 0 0 0 0 127 0" result="hardAlpha"/>
<feOffset dy="20"/>
<feGaussianBlur stdDeviation="25"/>
<feColorMatrix type="matrix" values="0 0 0 0 0.469688 0 0 0 0 0.527175 0 0 0 0 0.675 0 0 0 0.2 0"/>
<feBlend mode="normal" in2="BackgroundImageFix" result="effect1_dropShadow"/>
<feBlend mode="normal" in="SourceGraphic" in2="effect1_dropShadow" result="shape"/>
</filter>
</defs>
</svg>
