<svg width="136" height="22" viewBox="0 0 136 22" fill="none" xmlns="http://www.w3.org/2000/svg">
<g clip-path="url(#clip0)">
<path d="M0.972168 0.821522L108.839 0.82019V21.436L0.972168 21.4373V0.821522Z" fill="#0A1045"/>
<path d="M77.6506 4.5282C78.5786 4.5282 79.1538 4.87038 80.0219 5.97945L86.4767 15.2156C86.8202 15.6989 86.7869 16.4698 86.1944 16.9704C85.6698 17.4137 84.7418 17.4537 84.2385 16.7893L82.6941 14.6524H72.5273L70.9841 16.8293C70.4396 17.475 69.7739 17.475 69.1694 17.0716C68.541 16.6522 68.3812 15.8413 68.766 15.2768L75.2807 5.98079C76.1088 4.83043 76.7639 4.5282 77.6506 4.5282ZM78.0367 7.94597C77.8663 7.69699 77.8037 7.67303 77.6227 7.67303C77.4203 7.67303 77.3404 7.77422 77.2032 7.95795C76.9809 8.25486 74.3926 12.0694 74.3633 12.0694H80.8993C80.886 12.0694 78.3975 8.47987 78.0367 7.94597Z" fill="white"/>
<path d="M33.6256 4.54419H42.9243C45.2316 4.54419 45.4433 7.19905 45.4433 7.19905H34.0037C33.4378 7.19905 32.9119 7.62644 32.9119 8.37071C32.9119 9.21883 33.5563 9.62225 33.9637 9.62225H42.0482C43.6499 9.62225 45.9293 10.9563 45.9293 13.2597C45.9293 16.2501 43.2811 17.3126 42.3597 17.3126H32.9013C30.0906 17.3126 30.2464 14.6324 30.2464 14.6324H41.9696C42.4383 14.6324 43.1293 14.1677 43.1293 13.4727C43.1293 12.8097 42.5235 12.3011 42.0775 12.3011H34.1555C31.908 12.3011 30.1665 10.6328 30.1665 8.36938C30.1625 5.82369 32.3474 4.54419 33.6256 4.54419Z" fill="white"/>
<path d="M93.2236 4.52692H102.826C104.281 4.52692 106.538 5.71588 106.538 8.55981V8.74088C106.538 10.2547 105.59 11.5848 104.258 12.2292C104.258 12.2292 104.354 12.3743 106.417 15.173C106.684 15.5352 106.699 16.4032 106.114 16.9278C105.557 17.4284 104.627 17.491 104.159 16.9478C103.504 16.1902 102.746 15.193 100.669 12.5528H96.917C95.8478 12.5528 94.3966 11.7046 94.3966 9.82999H102.505C102.946 9.81135 103.651 9.38929 103.651 8.56114C103.651 7.79557 102.972 7.26966 102.501 7.26966H93.5458L93.5525 15.7575C93.5538 16.6842 92.8428 17.3086 92.0772 17.3086C91.3503 17.3086 90.626 16.6642 90.626 15.7961V7.1485C90.6233 5.69458 92.1558 4.52692 93.2236 4.52692Z" fill="white"/>
<path d="M53.6515 4.54828H63.2538C64.709 4.54828 66.9658 5.73857 66.9658 8.58117V8.76224C66.9658 10.2774 66.0178 11.6062 64.6864 12.2506C64.6864 12.2506 63.9981 12.4729 63.3523 12.5541H57.321C56.2518 12.5541 54.8805 11.6874 54.8805 9.81141H62.9076C63.3483 9.79277 64.0766 9.41065 64.0766 8.5825C64.0766 7.81693 63.3976 7.29102 62.9263 7.29102L53.9724 7.28969L53.9777 15.7789C53.9791 16.7055 53.2681 17.33 52.5025 17.33C51.7756 17.33 51.0513 16.6856 51.0513 15.8175V7.16986C51.0499 5.71594 52.5824 4.54828 53.6515 4.54828Z" fill="white"/>
<path d="M113.979 11.4064C113.979 15.3621 115.971 18.905 119.481 20.6385C122.779 22.2682 127.174 22.2682 130.481 20.6385C133.743 19.0315 135.972 15.3634 135.972 11.4064C135.972 5.35507 131.131 0.410156 124.976 0.410156C118.791 0.410156 113.979 5.31646 113.979 11.4064Z" fill="#0A1045"/>
<path d="M124.981 3.2607C123.875 7.01266 120.577 12.5115 118.171 15.2076H123.875L123.888 16.8413C123.875 17.7679 123.139 18.7292 122.067 18.7159C120.577 18.6986 118.714 18.0103 117.589 16.0997C116.769 14.7056 116.174 13.6072 116.174 11.4064C116.174 6.59592 120.048 2.61096 124.977 2.61096C129.852 2.61096 133.781 6.71309 133.781 11.4064C133.781 13.6086 132.753 15.5125 132.413 16.061C131.21 18.0103 129.378 18.6986 127.958 18.7159C126.98 18.7279 126.078 18.0103 126.078 16.8359V15.2063H131.87C129.376 12.5115 126.078 7.01399 124.981 3.2607Z" fill="white"/>
</g>
<defs>
<clipPath id="clip0">
<rect width="135" height="21.4506" fill="white" transform="translate(0.972168 0.410156)"/>
</clipPath>
</defs>
</svg>
