<svg width="272" height="61" viewBox="0 0 272 61" fill="none" xmlns="http://www.w3.org/2000/svg">
<g clip-path="url(#clip0_217_5604)">
<path fill-rule="evenodd" clip-rule="evenodd" d="M101.077 24.1412L101.067 24.2237L96.5801 60.7512H266.757L271.219 24.1412H101.077ZM229.278 38.8232C229.496 37.0314 229.715 35.2396 229.938 33.4478C230.042 32.6062 230.148 31.7646 230.254 30.9193L230.257 30.9013L230.257 30.8979L230.257 30.8937L230.258 30.8883L230.259 30.8816C230.378 29.9397 230.497 28.993 230.615 28.0366H235.632C234.404 37.9632 233.177 47.8777 231.951 57.7804H227.142L227.447 55.1859L227.379 55.1572C227.365 55.169 227.352 55.1807 227.338 55.1924L227.295 55.2282L227.295 55.2287C227.239 55.2755 227.184 55.3223 227.132 55.3722C225.505 56.9086 223.402 57.843 221.172 58.0205C219.337 58.2353 217.477 57.989 215.761 57.3038C212.855 56.0997 211.059 53.9137 210.583 50.8533C209.841 46.0764 211.188 41.9445 214.94 38.7551C216.786 37.2149 219.068 36.2924 221.466 36.1176C222.942 35.9502 224.437 36.0905 225.856 36.5297C227.093 36.9155 228.194 37.6481 229.027 38.6405C229.084 38.7084 229.145 38.7727 229.206 38.8371L229.206 38.8375L229.278 38.8232ZM221.315 53.7883C222.219 53.7773 223.112 53.5874 223.941 53.2294C224.771 52.8714 225.522 52.3525 226.15 51.7026C227.075 50.775 227.75 49.6286 228.114 48.3699C228.477 47.1112 228.516 45.7811 228.228 44.5032C228.076 43.5073 227.612 42.585 226.904 41.8681C226.196 41.1511 225.28 40.6762 224.286 40.5111C221.444 39.9126 219.025 40.7583 217.187 43.0196C215.754 44.7612 215.299 46.8146 215.524 49.0257C215.625 50.2444 216.156 51.3874 217.022 52.2509C218.162 53.3475 219.574 53.7668 221.315 53.7883ZM242.422 48.6674H259.226L259.231 48.6467L259.245 48.5997C259.268 48.5202 259.286 48.4578 259.297 48.3843C259.677 46.782 259.731 45.1197 259.455 43.4962C258.792 39.8625 256.706 37.4722 253.123 36.4437C251.512 35.9992 249.824 35.9063 248.174 36.1714C245.634 36.5007 243.266 37.6304 241.412 39.3966C238.713 41.9625 237.437 45.1447 237.47 48.8573C237.443 50.7522 238.029 52.6051 239.141 54.1396C240.253 55.6741 241.831 56.8079 243.641 57.3719C245.979 58.1328 248.474 58.2809 250.887 57.8019C253.136 57.4334 255.223 56.3985 256.878 54.8311C256.943 54.7691 257.006 54.701 257.074 54.6269C257.096 54.6024 257.12 54.5774 257.144 54.5516L254.846 51.4841L254.524 51.7457C252.051 53.7489 249.252 54.2757 246.228 53.4335C244.031 52.8207 242.745 51.3085 242.422 49.0257C242.416 48.9064 242.416 48.7867 242.422 48.6674ZM254.925 45.3131H242.748C242.804 45.169 242.855 45.0272 242.906 44.8877L242.906 44.8875L242.906 44.8872C242.999 44.6314 243.09 44.3836 243.196 44.1449C243.867 42.6344 245.06 41.4166 246.556 40.7149C248.052 40.0131 249.752 39.8746 251.342 40.3248C252.369 40.6067 253.275 41.2173 253.922 42.0631C254.569 42.909 254.922 43.9435 254.925 45.0085V45.3131ZM130.718 57.7732H125.701C126.115 54.4215 126.528 51.0824 126.941 47.7466L126.942 47.7405L126.942 47.7375C127.412 43.9432 127.881 40.1532 128.349 36.3541H133.126L132.811 38.9952C132.899 38.9363 132.984 38.8729 133.065 38.8053C134.748 37.2458 136.909 36.3022 139.197 36.1284C140.662 35.9475 142.147 36.0583 143.569 36.4545C144.874 36.7944 146.042 37.5328 146.908 38.5668C147.774 39.6009 148.297 40.8792 148.403 42.224C148.528 43.5266 148.494 44.8393 148.303 46.1337C148.159 47.2378 148.024 48.3418 147.889 49.4408L147.889 49.4421L147.889 49.4433L147.889 49.4442L147.889 49.4448L147.889 49.4462L147.888 49.4481C147.805 50.1303 147.721 50.8105 147.636 51.4876C147.511 52.4882 147.389 53.4761 147.267 54.4625L147.266 54.465L147.266 54.4716L147.265 54.4756C147.172 55.23 147.079 55.9836 146.984 56.7412C146.941 57.0816 146.898 57.4185 146.851 57.7768H141.863L141.876 57.627C141.9 57.3573 141.923 57.094 141.956 56.8308C142.195 54.8311 142.442 52.8303 142.698 50.8282C142.795 50.0432 142.893 49.2582 142.992 48.4732L142.993 48.4682C143.091 47.6853 143.189 46.9023 143.286 46.1194C143.423 45.21 143.392 44.283 143.193 43.3851C143.068 42.719 142.75 42.1042 142.278 41.6174C141.807 41.1305 141.203 40.7932 140.541 40.6473C138.876 40.2087 137.108 40.4054 135.581 41.1991C134.062 41.9768 133.126 43.2633 132.557 44.8401C132.231 45.8802 132.023 46.9537 131.937 48.0402C131.722 49.8033 131.505 51.5665 131.288 53.3296C131.116 54.7272 130.942 56.126 130.765 57.526C130.757 57.5778 130.747 57.6314 130.735 57.6901L130.735 57.6904C130.729 57.7168 130.724 57.7443 130.718 57.7732ZM192.059 36.3542H187.063C187.027 36.4366 187.009 36.5011 187.002 36.6015C186.923 37.1892 186.848 37.7912 186.773 38.3932C186.577 39.9629 186.382 41.5325 186.189 43.1021C186.117 43.6778 186.047 44.2535 185.976 44.8291C185.83 46.0163 185.685 47.2029 185.533 48.3879C185.331 49.7276 185.344 51.091 185.572 52.4266C186.042 54.8527 187.386 56.5692 189.726 57.4651C190.632 57.7994 191.582 57.9987 192.546 58.0564C195.599 58.275 198.344 57.4974 200.616 55.3472C200.652 55.3116 200.693 55.2815 200.746 55.2424L200.782 55.216C200.796 55.2056 200.811 55.1945 200.827 55.1826L200.86 55.1573C200.759 55.9955 200.667 56.7714 200.572 57.5633L200.544 57.7984H205.35L205.619 55.6246L205.63 55.5365C206.421 49.1539 207.21 42.7895 208.002 36.3793H202.985C202.979 36.4054 202.973 36.4291 202.968 36.451L202.968 36.451C202.955 36.4981 202.945 36.5372 202.945 36.5764L202.451 40.5649C202.371 41.2029 202.292 41.8409 202.214 42.4789L202.214 42.485C202.073 43.6368 201.932 44.7885 201.777 45.9403C201.669 46.905 201.502 47.8624 201.279 48.8072C201.093 49.6338 200.739 50.4135 200.239 51.0977C199.739 51.7819 199.104 52.3562 198.373 52.7849C196.953 53.5974 195.285 53.8649 193.682 53.5375C192.941 53.4321 192.253 53.0942 191.716 52.5725C191.18 52.0509 190.823 51.3724 190.697 50.6348C190.54 49.9038 190.502 49.1523 190.586 48.4094C190.707 47.3767 190.834 46.3441 190.961 45.3114C191.003 44.968 191.045 44.6245 191.087 44.2811C191.362 42.0855 191.633 39.8912 191.901 37.698C191.942 37.3834 191.978 37.0668 192.015 36.7404C192.029 36.6133 192.043 36.4847 192.059 36.3542ZM173.464 41.0594L169.371 43.2848L169.356 43.2606L169.326 43.2134L169.3 43.1726C169.26 43.1092 169.224 43.0537 169.192 42.9981C168.751 42.1836 168.096 41.5048 167.298 41.0344C166.5 40.5641 165.589 40.32 164.662 40.3283C160.72 40.2172 157.674 42.801 157.058 46.7537C156.822 47.9883 156.925 49.2639 157.355 50.4448C158.093 52.3118 159.505 53.3511 161.458 53.67C164.171 54.1072 166.407 53.2149 168.174 51.1221L168.436 50.8067L172.009 53.0716C171.939 53.1673 171.872 53.2613 171.807 53.3534L171.807 53.3538C171.667 53.5511 171.533 53.7402 171.389 53.9209C169.718 56.036 167.311 57.4435 164.648 57.8628C162.232 58.3563 159.724 58.1218 157.441 57.1891C154.273 55.8524 152.385 53.4514 151.958 50.0434C151.195 43.9836 154.825 38.5007 160.717 36.6946C163.368 35.8184 166.232 35.8184 168.884 36.6946C169.87 37.0008 170.778 37.5163 171.546 38.2059C172.314 38.8956 172.924 39.743 173.335 40.6903L173.357 40.7422C173.382 40.799 173.406 40.8547 173.428 40.9125C173.442 40.9608 173.454 41.0098 173.464 41.0594ZM174.879 57.7768H179.896C181.114 47.8503 182.34 37.956 183.573 28.0331H178.556C177.979 32.7011 177.403 37.3628 176.826 42.0245L176.826 42.0266L176.825 42.0308L176.812 42.1368L176.811 42.1446C176.167 47.3523 175.523 52.5601 174.879 57.7768ZM118.283 36.3506H123.3C122.419 43.4963 121.537 50.6169 120.652 57.7661H115.635C116.516 50.6324 117.399 43.4939 118.283 36.3506ZM119.169 28.0781C118.682 28.667 118.406 29.4015 118.384 30.1653C118.369 30.7446 118.554 31.3114 118.906 31.7712C119.259 32.2309 119.759 32.5558 120.322 32.6917C120.825 32.8308 121.352 32.8591 121.866 32.7747C122.381 32.6903 122.871 32.4952 123.302 32.2028C123.734 31.9104 124.097 31.5278 124.367 31.0813C124.636 30.6349 124.805 30.1353 124.863 29.617C124.926 29.1174 124.83 28.6107 124.591 28.1679C124.351 27.7251 123.979 27.3684 123.526 27.1479C122.762 26.7774 121.891 26.6947 121.071 26.915C120.325 27.0799 119.656 27.4893 119.169 28.0781Z" fill="white"/>
<path d="M29.4925 0.751221L29.4818 0.833643L28.4784 8.97197H34.7246H35.3911L35.3983 9.63493L35.4484 14.3939L35.4556 15.0748H34.7783H27.7366L26.7511 23.0411H33.051H33.7247V23.7113V28.4703V29.1404H33.051H26.0093L24.9951 37.3611H107.213L111.679 0.751221H29.4925Z" fill="#004BFF"/>
<path d="M108.824 24.1412H101.072L101.062 24.2237L99.4453 37.3611H107.211L108.824 24.1412Z" fill="#002E66"/>
<path d="M25.9918 23.7113H33.0514V28.4703H25.4184L24.3182 37.3611H19.5592L20.6594 28.4703H11.8258L10.7293 37.3611H5.96309L7.05967 28.4703H0V23.7113H7.63663L8.83713 14.3939H1.79179V9.6421H9.41409L10.5107 0.751221H15.2697L14.1731 9.6421H22.9601L24.0566 0.751221H28.8156L27.7191 9.6421H34.725L34.7787 14.4011H27.1421L25.9918 23.7113ZM21.2328 23.7113L22.3831 14.3939H13.5961L12.3956 23.7113H21.2328Z" fill="#004BFF"/>
<path d="M79.6747 8.45239L67.4905 30.2585H62.4735L59.5313 15.2325L51.0096 30.2585H46.0678L42.0649 8.45239H46.7236L49.5009 24.5033L58.6068 8.45239H62.9752L65.8743 24.5033L74.8583 8.45239H79.6747Z" fill="white"/>
<path d="M100.578 20.8658H83.2621C83.3445 24.3383 85.3441 26.2161 89.5513 26.2161C92.0598 26.2161 94.3282 25.3991 95.8405 23.9692L97.962 27.5242C95.6756 29.5668 92.368 30.5451 89.003 30.5451C82.4271 30.5451 78.2522 26.7465 78.2522 20.9483C78.2522 13.5589 83.5201 8.20862 90.8306 8.20862C96.8726 8.20862 100.865 11.7922 100.865 17.7625C100.879 18.8041 100.783 19.8444 100.578 20.8658ZM83.7136 17.4794H96.206C96.249 14.1287 94.0021 12.2903 90.612 12.2903C87.1431 12.2903 84.6525 14.2935 83.7136 17.4794Z" fill="white"/>
</g>
<defs>
<clipPath id="clip0_217_5604">
<rect width="271.217" height="60" fill="white" transform="translate(0 0.751221)"/>
</clipPath>
</defs>
</svg>
